<?xml version="1.0" standalone="no"?>
<!DOCTYPE svg PUBLIC "-//W3C//DTD SVG 20010904//EN"
 "http://www.w3.org/TR/2001/REC-SVG-20010904/DTD/svg10.dtd">
<svg version="1.0" xmlns="http://www.w3.org/2000/svg"
 width="1024.000000pt" height="1024.000000pt" viewBox="0 0 1024.000000 1024.000000"
 preserveAspectRatio="xMidYMid meet">

<g transform="translate(0.000000,1024.000000) scale(0.100000,-0.100000)"
fill="#000000" stroke="none">
<path d="M4905 8714 c-192 -34 -406 -126 -556 -238 -104 -79 -246 -225 -317
-328 -68 -99 -143 -251 -181 -364 -128 -386 -92 -769 121 -1269 168 -394 387
-732 683 -1055 54 -59 91 -106 83 -108 -7 -1 -166 29 -353 68 -1059 217 -1243
253 -1268 246 -15 -3 -31 -15 -37 -27 -22 -39 -32 -341 -26 -749 3 -223 9
-420 13 -439 5 -19 20 -43 35 -54 l27 -20 248 51 c136 28 471 97 743 152 272
56 534 109 583 119 l87 19 0 -27 c0 -23 -45 -457 -115 -1111 -14 -129 -32
-298 -40 -375 -8 -77 -26 -246 -40 -375 -131 -1233 -129 -1221 -121 -1253 3
-15 15 -31 25 -36 74 -40 1168 -40 1242 0 10 5 22 21 25 36 8 32 10 20 -121
1253 -14 129 -32 298 -40 375 -8 77 -26 246 -40 375 -80 745 -115 1085 -115
1110 l0 28 88 -19 c48 -10 310 -63 582 -119 272 -55 607 -124 743 -152 l248
-51 27 20 c19 15 29 34 36 69 12 69 12 1111 0 1149 -6 17 -22 37 -37 45 -29
16 -63 10 -1282 -240 -187 -39 -346 -69 -353 -68 -8 2 39 61 105 133 254 280
407 504 572 835 330 665 370 1174 131 1653 -67 133 -138 233 -244 345 -205
214 -453 347 -735 396 -115 20 -315 20 -426 0z m420 -649 c313 -85 544 -368
571 -698 21 -274 -116 -648 -391 -1062 -91 -138 -265 -367 -344 -455 l-41 -45
-41 45 c-79 88 -253 317 -344 455 -275 414 -412 788 -391 1062 28 350 273 631
616 708 82 19 280 13 365 -10z"/>
</g>
</svg>
